<?xml version="1.0" encoding="utf-8"?>
<!-- Generator: Adobe Illustrator 22.0.0, SVG Export Plug-In . SVG Version: 6.00 Build 0)  -->
<svg version="1.1" id="Layer_1" xmlns="http://www.w3.org/2000/svg" xmlns:xlink="http://www.w3.org/1999/xlink" x="0px" y="0px"
	 viewBox="0 0 1242 2208" style="enable-background:new 0 0 1242 2208;" xml:space="preserve">
<style type="text/css">
	.st0{fill:#FFFFFF;}
	.st1{fill:#FFFFFF;stroke:#FFFFFF;stroke-miterlimit:10;}
</style>
<g id="Layer_1">
	<g>
		<g>
			<rect x="179" y="162" width="453" height="1883"/>
			<circle class="st0" cx="187" cy="172" r="63"/>
			<circle class="st0" cx="179" cy="2045" r="63"/>
			<circle class="st0" cx="179" cy="1451" r="63"/>
			<line class="st1" x1="666" y1="1451" x2="242" y2="1451"/>
			<rect x="278" y="1412" width="12" height="78"/>
			<rect x="323" y="1412" width="12" height="78"/>
			<rect x="366" y="1412" width="12" height="78"/>
			<rect x="404" y="1412" width="12" height="78"/>
			<rect x="449" y="1412" width="12" height="78"/>
			<rect x="492" y="1412" width="12" height="78"/>
			<rect x="532" y="1412" width="12" height="78"/>
			<rect x="577" y="1412" width="12" height="78"/>
			<rect x="620" y="1412" width="12" height="78"/>
		</g>
		<g>
			<g>
				<rect x="601" y="162" width="453" height="1883"/>
				<circle class="st0" cx="1046" cy="172" r="63"/>
				<circle class="st0" cx="1054" cy="2045" r="63"/>
				<circle class="st0" cx="1054" cy="1451" r="63"/>
				<line class="st1" x1="567" y1="1451" x2="991" y2="1451"/>
				<rect x="943" y="1412" width="12" height="78"/>
				<rect x="898" y="1412" width="12" height="78"/>
				<rect x="855" y="1412" width="12" height="78"/>
				<rect x="817" y="1412" width="12" height="78"/>
				<rect x="772" y="1412" width="12" height="78"/>
				<rect x="729" y="1412" width="12" height="78"/>
				<rect x="689" y="1412" width="12" height="78"/>
				<rect x="644" y="1412" width="12" height="78"/>
				<rect x="601" y="1412" width="12" height="78"/>
			</g>
		</g>
		<g>
			<g>
				<polygon class="st0" points="269.7,176 291,159 248.4,159 				"/>
				<polygon class="st0" points="309.7,176 331,159 288.4,159 				"/>
				<polygon class="st0" points="350.7,176 372,159 329.4,159 				"/>
				<polygon class="st0" points="390.7,176 412,159 369.4,159 				"/>
				<polygon class="st0" points="432.7,176 454,159 411.4,159 				"/>
				<polygon class="st0" points="472.7,176 494,159 451.4,159 				"/>
				<polygon class="st0" points="513.7,176 535,159 492.4,159 				"/>
				<polygon class="st0" points="553.7,176 575,159 532.4,159 				"/>
				<polygon class="st0" points="596.7,176 618,159 575.4,159 				"/>
				<polygon class="st0" points="636.7,176 658,159 615.4,159 				"/>
				<polygon class="st0" points="677.7,176 699,159 656.4,159 				"/>
				<polygon class="st0" points="717.7,176 739,159 696.4,159 				"/>
				<polygon class="st0" points="759.7,176 781,159 738.4,159 				"/>
				<polygon class="st0" points="799.7,176 821,159 778.4,159 				"/>
				<polygon class="st0" points="840.7,176 862,159 819.4,159 				"/>
				<polygon class="st0" points="880.7,176 902,159 859.4,159 				"/>
				<polygon class="st0" points="921.7,176 943,159 900.4,159 				"/>
				<polygon class="st0" points="962.7,176 984,159 941.4,159 				"/>
			</g>
			<g>
				<polygon class="st0" points="268.7,2030 290,2047 247.4,2047 				"/>
				<polygon class="st0" points="308.7,2030 330,2047 287.4,2047 				"/>
				<polygon class="st0" points="349.7,2030 371,2047 328.4,2047 				"/>
				<polygon class="st0" points="389.7,2030 411,2047 368.4,2047 				"/>
				<polygon class="st0" points="431.7,2030 453,2047 410.4,2047 				"/>
				<polygon class="st0" points="471.7,2030 493,2047 450.4,2047 				"/>
				<polygon class="st0" points="512.7,2030 534,2047 491.4,2047 				"/>
				<polygon class="st0" points="552.7,2030 574,2047 531.4,2047 				"/>
				<polygon class="st0" points="595.7,2030 617,2047 574.4,2047 				"/>
				<polygon class="st0" points="635.7,2030 657,2047 614.4,2047 				"/>
				<polygon class="st0" points="676.7,2030 698,2047 655.4,2047 				"/>
				<polygon class="st0" points="716.7,2030 738,2047 695.4,2047 				"/>
				<polygon class="st0" points="758.7,2030 780,2047 737.4,2047 				"/>
				<polygon class="st0" points="798.7,2030 820,2047 777.4,2047 				"/>
				<polygon class="st0" points="839.7,2030 861,2047 818.4,2047 				"/>
				<polygon class="st0" points="879.7,2030 901,2047 858.4,2047 				"/>
				<polygon class="st0" points="920.7,2030 942,2047 899.4,2047 				"/>
				<polygon class="st0" points="961.7,2030 983,2047 940.4,2047 				"/>
			</g>
		</g>
	</g>
</g>
</svg>
